{
	"asset":{
		"generator":"Khronos glTF Blender I/O v4.0.44",
		"version":"2.0"
	},
	"extensionsUsed":[
		"KHR_materials_specular",
		"KHR_materials_ior"
	],
	"scene":0,
	"scenes":[
		{
			"name":"Scene",
			"nodes":[
				0,
				1,
				2,
				3,
				4
			]
		}
	],
	"nodes":[
		{
			"mesh":0,
			"name":"Body_Koenisegg_one.341",
			"rotation":[
				0.7071068286895752,
				0,
				0,
				0.7071068286895752
			]
		},
		{
			"mesh":1,
			"name":"FL_Koenisegg_one.436",
			"rotation":[
				0.7071068286895752,
				0,
				0,
				0.7071068286895752
			]
		},
		{
			"mesh":2,
			"name":"FR_Koenisegg_one.429",
			"rotation":[
				0.7071068286895752,
				0,
				0,
				0.7071068286895752
			]
		},
		{
			"mesh":3,
			"name":"RL_Koenisegg_one.500",
			"rotation":[
				0.7071068286895752,
				0,
				0,
				0.7071068286895752
			],
			"scale":[
				0.5,
				0.5,
				0.5
			]
		},
		{
			"mesh":4,
			"name":"RR_Koenisegg_one.501",
			"rotation":[
				0.7071068286895752,
				0,
				0,
				0.7071068286895752
			],
			"scale":[
				0.5,
				0.5,
				0.5
			]
		}
	],
	"materials":[
		{
			"doubleSided":true,
			"extensions":{
				"KHR_materials_specular":{
					"specularFactor":0
				},
				"KHR_materials_ior":{
					"ior":1.4500000476837158
				}
			},
			"name":"Carbon.003",
			"pbrMetallicRoughness":{
				"baseColorFactor":[
					0.800000011920929,
					0.800000011920929,
					0.800000011920929,
					1
				],
				"metallicFactor":0
			}
		},
		{
			"doubleSided":true,
			"extensions":{
				"KHR_materials_specular":{
					"specularFactor":0
				},
				"KHR_materials_ior":{
					"ior":1.4500000476837158
				}
			},
			"name":"Window_Glass",
			"pbrMetallicRoughness":{
				"baseColorFactor":[
					0.800000011920929,
					0.800000011920929,
					0.800000011920929,
					1
				],
				"metallicFactor":0
			}
		},
		{
			"doubleSided":true,
			"extensions":{
				"KHR_materials_specular":{
					"specularFactor":0
				},
				"KHR_materials_ior":{
					"ior":1.4500000476837158
				}
			},
			"name":"Carbon",
			"pbrMetallicRoughness":{
				"baseColorFactor":[
					0.800000011920929,
					0.800000011920929,
					0.800000011920929,
					1
				],
				"metallicFactor":0
			}
		},
		{
			"doubleSided":true,
			"extensions":{
				"KHR_materials_specular":{
					"specularFactor":0
				},
				"KHR_materials_ior":{
					"ior":1.4500000476837158
				}
			},
			"name":"Carbon.002",
			"pbrMetallicRoughness":{
				"baseColorFactor":[
					0.800000011920929,
					0.800000011920929,
					0.800000011920929,
					1
				],
				"metallicFactor":0
			}
		},
		{
			"doubleSided":true,
			"extensions":{
				"KHR_materials_specular":{
					"specularFactor":0
				},
				"KHR_materials_ior":{
					"ior":1.4500000476837158
				}
			},
			"name":"Car_Texture",
			"pbrMetallicRoughness":{
				"baseColorFactor":[
					0.800000011920929,
					0.800000011920929,
					0.800000011920929,
					1
				],
				"metallicFactor":0
			}
		},
		{
			"doubleSided":true,
			"extensions":{
				"KHR_materials_specular":{
					"specularFactor":0
				},
				"KHR_materials_ior":{
					"ior":1.4500000476837158
				}
			},
			"name":"Carbon.001",
			"pbrMetallicRoughness":{
				"baseColorFactor":[
					0.800000011920929,
					0.800000011920929,
					0.800000011920929,
					1
				],
				"metallicFactor":0
			}
		},
		{
			"doubleSided":true,
			"extensions":{
				"KHR_materials_specular":{
					"specularFactor":0
				},
				"KHR_materials_ior":{
					"ior":1.4500000476837158
				}
			},
			"name":"Rear_Lights",
			"pbrMetallicRoughness":{
				"baseColorFactor":[
					0.800000011920929,
					0.800000011920929,
					0.800000011920929,
					1
				],
				"metallicFactor":0
			}
		}
	],
	"meshes":[
		{
			"name":"Body_Koenisegg_one.341",
			"primitives":[
				{
					"attributes":{
						"POSITION":0,
						"NORMAL":1,
						"TEXCOORD_0":2
					},
					"indices":3,
					"material":0
				},
				{
					"attributes":{
						"POSITION":4,
						"NORMAL":5,
						"TEXCOORD_0":6
					},
					"indices":7,
					"material":1
				},
				{
					"attributes":{
						"POSITION":8,
						"NORMAL":9,
						"TEXCOORD_0":10
					},
					"indices":11,
					"material":2
				},
				{
					"attributes":{
						"POSITION":12,
						"NORMAL":13,
						"TEXCOORD_0":14
					},
					"indices":15,
					"material":3
				},
				{
					"attributes":{
						"POSITION":16,
						"NORMAL":17,
						"TEXCOORD_0":18
					},
					"indices":19,
					"material":4
				},
				{
					"attributes":{
						"POSITION":20,
						"NORMAL":21,
						"TEXCOORD_0":22
					},
					"indices":23,
					"material":5
				},
				{
					"attributes":{
						"POSITION":24,
						"NORMAL":25,
						"TEXCOORD_0":26
					},
					"indices":27,
					"material":6
				}
			]
		},
		{
			"name":"FL_Koenisegg_one.436",
			"primitives":[
				{
					"attributes":{
						"POSITION":28,
						"NORMAL":29,
						"TEXCOORD_0":30
					},
					"indices":31,
					"material":5
				}
			]
		},
		{
			"name":"FR_Koenisegg_one.429",
			"primitives":[
				{
					"attributes":{
						"POSITION":32,
						"NORMAL":33,
						"TEXCOORD_0":34
					},
					"indices":35,
					"material":5
				}
			]
		},
		{
			"name":"RL_Koenisegg_one.500",
			"primitives":[
				{
					"attributes":{
						"POSITION":36,
						"NORMAL":37,
						"TEXCOORD_0":38
					},
					"indices":39,
					"material":5
				}
			]
		},
		{
			"name":"RR_Koenisegg_one.501",
			"primitives":[
				{
					"attributes":{
						"POSITION":40,
						"NORMAL":41,
						"TEXCOORD_0":42
					},
					"indices":43,
					"material":5
				}
			]
		}
	],
	"accessors":[
		{
			"bufferView":0,
			"componentType":5126,
			"count":7839,
			"max":[
				9.271573066711426,
				19.490196228027344,
				-0.9209820032119751
			],
			"min":[
				-9.431955337524414,
				-18.699337005615234,
				-9.155925750732422
			],
			"type":"VEC3"
		},
		{
			"bufferView":1,
			"componentType":5126,
			"count":7839,
			"type":"VEC3"
		},
		{
			"bufferView":2,
			"componentType":5126,
			"count":7839,
			"type":"VEC2"
		},
		{
			"bufferView":3,
			"componentType":5123,
			"count":29472,
			"type":"SCALAR"
		},
		{
			"bufferView":4,
			"componentType":5126,
			"count":391,
			"max":[
				7.324507236480713,
				17.966371536254883,
				-4.060489177703857
			],
			"min":[
				-7.484889984130859,
				-16.225187301635742,
				-8.761276245117188
			],
			"type":"VEC3"
		},
		{
			"bufferView":5,
			"componentType":5126,
			"count":391,
			"type":"VEC3"
		},
		{
			"bufferView":6,
			"componentType":5126,
			"count":391,
			"type":"VEC2"
		},
		{
			"bufferView":7,
			"componentType":5123,
			"count":1482,
			"type":"SCALAR"
		},
		{
			"bufferView":8,
			"componentType":5126,
			"count":226,
			"max":[
				8.341429710388184,
				18.282703399658203,
				-1.1353130340576172
			],
			"min":[
				-8.501809120178223,
				-16.942148208618164,
				-5.773067951202393
			],
			"type":"VEC3"
		},
		{
			"bufferView":9,
			"componentType":5126,
			"count":226,
			"type":"VEC3"
		},
		{
			"bufferView":10,
			"componentType":5126,
			"count":226,
			"type":"VEC2"
		},
		{
			"bufferView":11,
			"componentType":5123,
			"count":546,
			"type":"SCALAR"
		},
		{
			"bufferView":12,
			"componentType":5126,
			"count":6323,
			"max":[
				25.99228858947754,
				12.52627182006836,
				-1.3413499593734741
			],
			"min":[
				-7.6422810554504395,
				-3.491102933883667,
				-9.51107406616211
			],
			"type":"VEC3"
		},
		{
			"bufferView":13,
			"componentType":5126,
			"count":6323,
			"type":"VEC3"
		},
		{
			"bufferView":14,
			"componentType":5126,
			"count":6323,
			"type":"VEC2"
		},
		{
			"bufferView":15,
			"componentType":5123,
			"count":23184,
			"type":"SCALAR"
		},
		{
			"bufferView":16,
			"componentType":5126,
			"count":7177,
			"max":[
				8.448814392089844,
				18.979480743408203,
				-0.9235690236091614
			],
			"min":[
				-8.609195709228516,
				-17.488969802856445,
				-10.003436088562012
			],
			"type":"VEC3"
		},
		{
			"bufferView":17,
			"componentType":5126,
			"count":7177,
			"type":"VEC3"
		},
		{
			"bufferView":18,
			"componentType":5126,
			"count":7177,
			"type":"VEC2"
		},
		{
			"bufferView":19,
			"componentType":5123,
			"count":24207,
			"type":"SCALAR"
		},
		{
			"bufferView":20,
			"componentType":5126,
			"count":296,
			"max":[
				3.3616690635681152,
				18.320268630981445,
				-4.183267116546631
			],
			"min":[
				-3.295867919921875,
				-11.677348136901855,
				-8.28504753112793
			],
			"type":"VEC3"
		},
		{
			"bufferView":21,
			"componentType":5126,
			"count":296,
			"type":"VEC3"
		},
		{
			"bufferView":22,
			"componentType":5126,
			"count":296,
			"type":"VEC2"
		},
		{
			"bufferView":23,
			"componentType":5123,
			"count":1344,
			"type":"SCALAR"
		},
		{
			"bufferView":24,
			"componentType":5126,
			"count":163,
			"max":[
				7.13274621963501,
				-14.662364959716797,
				-5.741528034210205
			],
			"min":[
				-7.27186918258667,
				-16.225187301635742,
				-6.638895034790039
			],
			"type":"VEC3"
		},
		{
			"bufferView":25,
			"componentType":5126,
			"count":163,
			"type":"VEC3"
		},
		{
			"bufferView":26,
			"componentType":5126,
			"count":163,
			"type":"VEC2"
		},
		{
			"bufferView":27,
			"componentType":5123,
			"count":726,
			"type":"SCALAR"
		},
		{
			"bufferView":28,
			"componentType":5126,
			"count":3506,
			"max":[
				8.26507568359375,
				14.247396469116211,
				0.06896500289440155
			],
			"min":[
				6.028532028198242,
				8.700264930725098,
				-5.467216968536377
			],
			"type":"VEC3"
		},
		{
			"bufferView":29,
			"componentType":5126,
			"count":3506,
			"type":"VEC3"
		},
		{
			"bufferView":30,
			"componentType":5126,
			"count":3506,
			"type":"VEC2"
		},
		{
			"bufferView":31,
			"componentType":5123,
			"count":11928,
			"type":"SCALAR"
		},
		{
			"bufferView":32,
			"componentType":5126,
			"count":3506,
			"max":[
				-6.188912868499756,
				14.247396469116211,
				0.06896600127220154
			],
			"min":[
				-8.425457954406738,
				8.700264930725098,
				-5.467216968536377
			],
			"type":"VEC3"
		},
		{
			"bufferView":33,
			"componentType":5126,
			"count":3506,
			"type":"VEC3"
		},
		{
			"bufferView":34,
			"componentType":5126,
			"count":3506,
			"type":"VEC2"
		},
		{
			"bufferView":35,
			"componentType":5123,
			"count":11928,
			"type":"SCALAR"
		},
		{
			"bufferView":36,
			"componentType":5126,
			"count":3506,
			"max":[
				8.381535530090332,
				-8.21713924407959,
				0.0281980000436306
			],
			"min":[
				6.182180881500244,
				-14.057405471801758,
				-5.800540924072266
			],
			"type":"VEC3"
		},
		{
			"bufferView":37,
			"componentType":5126,
			"count":3506,
			"type":"VEC3"
		},
		{
			"bufferView":38,
			"componentType":5126,
			"count":3506,
			"type":"VEC2"
		},
		{
			"bufferView":39,
			"componentType":5123,
			"count":11928,
			"type":"SCALAR"
		},
		{
			"bufferView":40,
			"componentType":5126,
			"count":3506,
			"max":[
				-6.342560768127441,
				-8.21713924407959,
				0.0281980000436306
			],
			"min":[
				-8.54191780090332,
				-14.057405471801758,
				-5.800540924072266
			],
			"type":"VEC3"
		},
		{
			"bufferView":41,
			"componentType":5126,
			"count":3506,
			"type":"VEC3"
		},
		{
			"bufferView":42,
			"componentType":5126,
			"count":3506,
			"type":"VEC2"
		},
		{
			"bufferView":43,
			"componentType":5123,
			"count":11928,
			"type":"SCALAR"
		}
	],
	"bufferViews":[
		{
			"buffer":0,
			"byteLength":94068,
			"byteOffset":0,
			"target":34962
		},
		{
			"buffer":0,
			"byteLength":94068,
			"byteOffset":94068,
			"target":34962
		},
		{
			"buffer":0,
			"byteLength":62712,
			"byteOffset":188136,
			"target":34962
		},
		{
			"buffer":0,
			"byteLength":58944,
			"byteOffset":250848,
			"target":34963
		},
		{
			"buffer":0,
			"byteLength":4692,
			"byteOffset":309792,
			"target":34962
		},
		{
			"buffer":0,
			"byteLength":4692,
			"byteOffset":314484,
			"target":34962
		},
		{
			"buffer":0,
			"byteLength":3128,
			"byteOffset":319176,
			"target":34962
		},
		{
			"buffer":0,
			"byteLength":2964,
			"byteOffset":322304,
			"target":34963
		},
		{
			"buffer":0,
			"byteLength":2712,
			"byteOffset":325268,
			"target":34962
		},
		{
			"buffer":0,
			"byteLength":2712,
			"byteOffset":327980,
			"target":34962
		},
		{
			"buffer":0,
			"byteLength":1808,
			"byteOffset":330692,
			"target":34962
		},
		{
			"buffer":0,
			"byteLength":1092,
			"byteOffset":332500,
			"target":34963
		},
		{
			"buffer":0,
			"byteLength":75876,
			"byteOffset":333592,
			"target":34962
		},
		{
			"buffer":0,
			"byteLength":75876,
			"byteOffset":409468,
			"target":34962
		},
		{
			"buffer":0,
			"byteLength":50584,
			"byteOffset":485344,
			"target":34962
		},
		{
			"buffer":0,
			"byteLength":46368,
			"byteOffset":535928,
			"target":34963
		},
		{
			"buffer":0,
			"byteLength":86124,
			"byteOffset":582296,
			"target":34962
		},
		{
			"buffer":0,
			"byteLength":86124,
			"byteOffset":668420,
			"target":34962
		},
		{
			"buffer":0,
			"byteLength":57416,
			"byteOffset":754544,
			"target":34962
		},
		{
			"buffer":0,
			"byteLength":48414,
			"byteOffset":811960,
			"target":34963
		},
		{
			"buffer":0,
			"byteLength":3552,
			"byteOffset":860376,
			"target":34962
		},
		{
			"buffer":0,
			"byteLength":3552,
			"byteOffset":863928,
			"target":34962
		},
		{
			"buffer":0,
			"byteLength":2368,
			"byteOffset":867480,
			"target":34962
		},
		{
			"buffer":0,
			"byteLength":2688,
			"byteOffset":869848,
			"target":34963
		},
		{
			"buffer":0,
			"byteLength":1956,
			"byteOffset":872536,
			"target":34962
		},
		{
			"buffer":0,
			"byteLength":1956,
			"byteOffset":874492,
			"target":34962
		},
		{
			"buffer":0,
			"byteLength":1304,
			"byteOffset":876448,
			"target":34962
		},
		{
			"buffer":0,
			"byteLength":1452,
			"byteOffset":877752,
			"target":34963
		},
		{
			"buffer":0,
			"byteLength":42072,
			"byteOffset":879204,
			"target":34962
		},
		{
			"buffer":0,
			"byteLength":42072,
			"byteOffset":921276,
			"target":34962
		},
		{
			"buffer":0,
			"byteLength":28048,
			"byteOffset":963348,
			"target":34962
		},
		{
			"buffer":0,
			"byteLength":23856,
			"byteOffset":991396,
			"target":34963
		},
		{
			"buffer":0,
			"byteLength":42072,
			"byteOffset":1015252,
			"target":34962
		},
		{
			"buffer":0,
			"byteLength":42072,
			"byteOffset":1057324,
			"target":34962
		},
		{
			"buffer":0,
			"byteLength":28048,
			"byteOffset":1099396,
			"target":34962
		},
		{
			"buffer":0,
			"byteLength":23856,
			"byteOffset":1127444,
			"target":34963
		},
		{
			"buffer":0,
			"byteLength":42072,
			"byteOffset":1151300,
			"target":34962
		},
		{
			"buffer":0,
			"byteLength":42072,
			"byteOffset":1193372,
			"target":34962
		},
		{
			"buffer":0,
			"byteLength":28048,
			"byteOffset":1235444,
			"target":34962
		},
		{
			"buffer":0,
			"byteLength":23856,
			"byteOffset":1263492,
			"target":34963
		},
		{
			"buffer":0,
			"byteLength":42072,
			"byteOffset":1287348,
			"target":34962
		},
		{
			"buffer":0,
			"byteLength":42072,
			"byteOffset":1329420,
			"target":34962
		},
		{
			"buffer":0,
			"byteLength":28048,
			"byteOffset":1371492,
			"target":34962
		},
		{
			"buffer":0,
			"byteLength":23856,
			"byteOffset":1399540,
			"target":34963
		}
	],
	"buffers":[
		{
			"byteLength":1423396,
			"uri":"untitled.bin"
		}
	]
}
